<?xml version="1.0" standalone="no"?>
<!DOCTYPE svg PUBLIC "-//W3C//DTD SVG 20010904//EN"
 "http://www.w3.org/TR/2001/REC-SVG-20010904/DTD/svg10.dtd">
<svg version="1.0" xmlns="http://www.w3.org/2000/svg"
 width="600.000000pt" height="600.000000pt" viewBox="0 0 600.000000 600.000000"
 preserveAspectRatio="xMidYMid meet">
<metadata>
Created by potrace 1.14, written by Peter Selinger 2001-2017
</metadata>
<g transform="translate(0.000000,600.000000) scale(0.100000,-0.100000)"
fill="#000000" stroke="none">
<path d="M614 5832 c-38 -6 -70 -23 -83 -45 -16 -25 -27 -157 -16 -184 5 -10
7 -21 7 -25 -1 -4 5 -37 13 -72 8 -35 16 -83 17 -105 1 -23 5 -41 10 -41 4 0
7 -3 6 -7 -2 -8 18 -80 32 -118 21 -60 40 -125 40 -143 0 -19 19 -90 41 -157
6 -16 17 -55 25 -85 16 -63 51 -177 71 -233 7 -20 13 -46 13 -57 0 -11 4 -28
9 -38 19 -36 40 -99 46 -137 4 -22 10 -44 13 -50 11 -17 32 -77 41 -120 5 -22
17 -60 27 -85 9 -25 20 -61 24 -80 8 -36 27 -94 40 -120 4 -9 11 -31 15 -50 4
-19 18 -60 30 -90 13 -30 31 -82 41 -115 9 -33 21 -67 25 -75 4 -8 23 -64 43
-125 42 -130 88 -265 120 -355 13 -36 36 -105 51 -155 48 -152 86 -269 94
-290 5 -11 42 -121 82 -245 39 -124 80 -245 89 -270 10 -25 23 -65 30 -90 7
-25 18 -58 25 -75 7 -16 20 -52 30 -80 9 -27 20 -59 25 -70 4 -11 19 -58 35
-105 15 -47 33 -98 40 -115 8 -16 22 -57 34 -90 21 -62 75 -212 118 -325 13
-36 29 -78 35 -95 6 -16 19 -48 29 -70 10 -22 21 -55 25 -73 4 -17 13 -37 20
-43 8 -6 14 -20 14 -30 0 -19 12 -47 101 -237 22 -45 39 -86 39 -91 0 -4 8
-19 19 -32 10 -13 22 -36 27 -50 13 -38 86 -117 115 -124 26 -6 119 29 119 45
0 6 4 10 9 10 13 0 110 64 110 73 1 8 58 66 76 77 8 5 126 125 320 325 39 40
89 94 113 121 23 27 54 61 68 76 13 15 75 85 136 155 119 138 147 168 193 215
16 16 37 41 46 54 14 21 120 138 234 259 17 17 41 45 55 61 14 16 50 59 80 94
30 36 68 80 85 98 64 70 75 83 75 92 0 4 4 10 8 12 4 2 37 44 72 93 36 50 68
92 73 93 4 2 15 18 24 35 8 18 22 39 29 47 72 80 94 106 94 111 0 4 25 32 55
64 30 31 67 73 83 93 15 20 34 44 42 53 8 10 31 36 50 58 19 23 49 56 65 74
17 19 44 51 60 72 17 21 35 43 40 49 33 35 64 84 57 91 -4 5 -1 5 7 0 7 -4 16
-3 20 3 11 18 65 85 83 103 9 10 13 21 10 24 -4 4 4 4 18 0 56 -18 62 -15 82
62 11 40 24 70 29 67 5 -3 12 3 16 13 4 10 13 24 20 31 7 8 26 30 41 50 15 21
35 46 46 57 10 11 36 43 57 72 21 28 48 58 58 65 11 8 27 27 34 42 8 15 35 49
61 76 25 27 46 52 46 57 0 5 18 29 40 53 21 25 64 77 95 115 31 39 64 79 74
90 10 11 30 39 45 63 15 23 44 59 64 80 21 20 44 51 51 69 7 17 19 34 27 37 8
3 23 26 34 51 11 25 26 45 34 45 14 0 32 36 28 53 -1 5 2 6 7 3 5 -4 13 4 17
16 3 13 15 35 25 50 15 21 19 44 19 120 0 107 11 93 -130 166 -47 24 -110 50
-140 57 -30 7 -80 22 -110 34 -30 11 -98 32 -150 45 -52 14 -138 37 -190 52
-52 14 -122 32 -155 39 -33 7 -134 32 -225 54 -91 23 -187 46 -215 52 -27 6
-72 17 -99 25 -26 8 -65 14 -85 14 -21 0 -41 3 -45 7 -4 4 -55 17 -114 30
-207 43 -348 73 -412 88 -36 8 -79 15 -97 15 -17 0 -34 4 -37 9 -3 5 -27 12
-53 16 -27 4 -102 18 -168 32 -66 14 -142 29 -170 33 -27 5 -86 15 -130 24
-44 9 -116 23 -160 31 -44 7 -111 20 -150 29 -88 19 -97 21 -225 41 -58 9
-125 21 -150 26 -25 6 -81 16 -125 24 -44 8 -145 26 -225 40 -80 15 -188 33
-240 40 -52 8 -113 19 -135 24 -22 6 -57 11 -79 11 -42 0 -199 28 -231 41 -11
4 -60 11 -110 14 -49 4 -94 11 -100 15 -5 4 -58 11 -117 15 -60 4 -108 10
-108 14 0 5 -48 11 -107 15 -59 4 -112 11 -118 16 -10 8 -243 18 -281 12z"/>
</g>
</svg>
